<svg version="1.1" xmlns="http://www.w3.org/2000/svg" style="display: block;" viewBox="0 0 1024 1620" width="256" height="405" preserveAspectRatio="none">
<path transform="translate(0,0)" fill="rgb(4,8,13)" d="M 0 0 L 1024 0 L 1024 1620 L 0 1620 L 0 0 z"/>
<path transform="translate(0,0)" fill="rgb(254,254,254)" d="M 262.815 150.432 C 265.042 150.321 267.27 150.25 269.499 150.22 L 617.998 150.123 L 721.03 150.034 C 747.977 150.018 774.602 149.191 801.265 153.598 C 847.147 159.299 893.391 212.595 902.684 256.253 C 909.174 286.746 906.425 341.046 906.387 374.466 L 906.458 566.215 L 680.675 565.82 C 679.538 493.943 680.86 421.737 679.975 349.692 C 662.471 350.388 639.204 349.632 621.3 349.633 L 499.161 349.682 L 404.858 349.752 C 387.927 349.76 365.804 350.343 349.313 349.085 C 350.132 399.11 348.031 450.608 348.916 500.802 C 349.275 521.161 348.137 545.194 349.759 565.211 C 371.412 581.145 404.933 589.94 428.398 602.887 C 458.766 619.642 488.99 632.602 520.231 647.132 L 674.77 719.395 C 689.751 726.461 704.386 735.924 719.259 742.991 C 732.625 750.061 749.86 754.527 762.796 761.919 C 791.984 778.599 822.533 789.848 852.65 804.168 C 861.699 808.471 869.974 817.122 877.257 823.756 C 911.918 855.325 907.516 890.813 907.303 933.75 L 907.291 1289.74 C 907.271 1304.37 907.614 1323.81 903.641 1338.03 C 889.358 1389.15 849.431 1431.48 796.634 1442.23 C 771.734 1447.29 739.749 1445.19 714.243 1445.31 C 662.16 1445.52 610.077 1445.45 557.995 1445.1 L 557.812 1322.1 C 557.817 1301.69 556.937 1268.2 558.702 1248.86 C 575.997 1245.69 603.333 1245.98 620.968 1245.98 L 682.978 1245.74 C 681.798 1158.55 683.194 1070.94 682.577 983.718 C 682.536 977.895 682.319 972.661 677.404 969.003 C 658.408 954.197 631.972 949.73 611.614 937.756 C 586.76 923.137 560.184 914.091 534.731 901.638 L 372.931 824.42 C 357.341 816.957 342.217 808.018 326.398 800.566 L 243.329 761.805 C 188.946 736.842 123.915 717.04 122.063 644.745 C 121.411 619.318 121.868 593.82 121.868 568.38 L 121.863 422.974 L 121.856 332.603 C 121.855 307.519 120.177 278.301 125.48 254.337 C 130.404 232.088 145.832 208.266 161.28 191.764 C 192.255 158.675 219.978 152.412 262.815 150.432 z"/>
<path transform="translate(0,0)" fill="rgb(254,254,254)" d="M 121.992 986.828 L 348.975 986.756 C 349.379 1072.11 347.709 1160.93 349.557 1245.99 L 478.222 1245.95 C 479.878 1311.47 478.217 1379.44 478.725 1445.3 C 453.413 1444.7 425.978 1445.35 400.52 1445.44 L 284.804 1445.4 C 247.285 1445.41 229.777 1444.74 194.926 1427.34 C 159.371 1409.59 135.223 1378.12 125.238 1339.54 C 120.428 1320.96 121.835 1297.41 121.835 1277.76 L 121.869 1212.28 L 121.992 986.828 z"/>
<path transform="translate(0,0)" fill="rgb(210,76,50)" d="M 512.532 1024.33 C 559.495 1017.7 602.89 1050.53 609.292 1097.53 C 615.694 1144.52 582.662 1187.76 535.638 1193.94 C 488.926 1200.08 446.033 1167.32 439.674 1120.63 C 433.314 1073.95 465.879 1030.9 512.532 1024.33 z"/>
</svg>